<svg viewBox="0 0 887.5 400" xmlns="http://www.w3.org/2000/svg"><g><g><g><g><g><line x1="59.98000144958496" y1="378.6199998855591" x2="54.98000144958496" y2="378.6199998855591" style="visibility: inherit;" fill="rgb(0, 0, 0)" stroke="rgb(204, 204, 204)" stroke-width="1px"></line><line x1="59.98000144958496" y1="353.37866655985516" x2="54.98000144958496" y2="353.37866655985516" style="visibility: inherit;" fill="rgb(0, 0, 0)" stroke="rgb(204, 204, 204)" stroke-width="1px"></line><line x1="59.98000144958496" y1="328.1373332341512" x2="54.98000144958496" y2="328.1373332341512" style="visibility: inherit;" fill="rgb(0, 0, 0)" stroke="rgb(204, 204, 204)" stroke-width="1px"></line><line x1="59.98000144958496" y1="302.89599990844727" x2="54.98000144958496" y2="302.89599990844727" style="visibility: inherit;" fill="rgb(0, 0, 0)" stroke="rgb(204, 204, 204)" stroke-width="1px"></line><line x1="59.98000144958496" y1="277.65466658274335" x2="54.98000144958496" y2="277.65466658274335" style="visibility: inherit;" fill="rgb(0, 0, 0)" stroke="rgb(204, 204, 204)" stroke-width="1px"></line><line x1="59.98000144958496" y1="252.41333325703937" x2="54.98000144958496" y2="252.41333325703937" style="visibility: inherit;" fill="rgb(0, 0, 0)" stroke="rgb(204, 204, 204)" stroke-width="1px"></line><line x1="59.98000144958496" y1="227.17199993133545" x2="54.98000144958496" y2="227.17199993133545" style="visibility: inherit;" fill="rgb(0, 0, 0)" stroke="rgb(204, 204, 204)" stroke-width="1px"></line><line x1="59.98000144958496" y1="201.93066660563147" x2="54.98000144958496" y2="201.93066660563147" style="visibility: inherit;" fill="rgb(0, 0, 0)" stroke="rgb(204, 204, 204)" stroke-width="1px"></line><line x1="59.98000144958496" y1="176.68933327992758" x2="54.98000144958496" y2="176.68933327992758" style="visibility: inherit;" fill="rgb(0, 0, 0)" stroke="rgb(204, 204, 204)" stroke-width="1px"></line><line x1="59.98000144958496" y1="151.4479999542236" x2="54.98000144958496" y2="151.4479999542236" style="visibility: inherit;" fill="rgb(0, 0, 0)" stroke="rgb(204, 204, 204)" stroke-width="1px"></line><line x1="59.98000144958496" y1="126.20666662851966" x2="54.98000144958496" y2="126.20666662851966" style="visibility: inherit;" fill="rgb(0, 0, 0)" stroke="rgb(204, 204, 204)" stroke-width="1px"></line><line x1="59.98000144958496" y1="100.96533330281574" x2="54.98000144958496" y2="100.96533330281574" style="visibility: inherit;" fill="rgb(0, 0, 0)" stroke="rgb(204, 204, 204)" stroke-width="1px"></line><line x1="59.98000144958496" y1="75.72399997711182" x2="54.98000144958496" y2="75.72399997711182" style="visibility: inherit;" fill="rgb(0, 0, 0)" stroke="rgb(204, 204, 204)" stroke-width="1px"></line><line x1="59.98000144958496" y1="50.48266665140784" x2="54.98000144958496" y2="50.48266665140784" style="visibility: inherit;" fill="rgb(0, 0, 0)" stroke="rgb(204, 204, 204)" stroke-width="1px"></line><line x1="59.98000144958496" y1="25.241333325703977" x2="54.98000144958496" y2="25.241333325703977" style="visibility: inherit;" fill="rgb(0, 0, 0)" stroke="rgb(204, 204, 204)" stroke-width="1px"></line><line x1="59.98000144958496" y1="0" x2="54.98000144958496" y2="0" style="visibility: inherit;" fill="rgb(0, 0, 0)" stroke="rgb(204, 204, 204)" stroke-width="1px"></line></g><g transform="translate(49.98000144958496, 0)"><text style="text-anchor: end; visibility: hidden; font-family: &quot;Helvetica Neue&quot;, sans-serif; font-size: 12px; font-weight: 200;" x="0" y="378.6199998855591" dx="0em" dy="0.3em" fill="rgb(50, 49, 63)" stroke="none" stroke-width="1px">-0.04</text><text style="text-anchor: end; visibility: inherit; font-family: &quot;Helvetica Neue&quot;, sans-serif; font-size: 12px; font-weight: 200;" x="0" y="353.37866655985516" dx="0em" dy="0.3em" fill="rgb(50, 49, 63)" stroke="none" stroke-width="1px">-0.02</text><text style="text-anchor: end; visibility: inherit; font-family: &quot;Helvetica Neue&quot;, sans-serif; font-size: 12px; font-weight: 200;" x="0" y="328.1373332341512" dx="0em" dy="0.3em" fill="rgb(50, 49, 63)" stroke="none" stroke-width="1px">0</text><text style="text-anchor: end; visibility: inherit; font-family: &quot;Helvetica Neue&quot;, sans-serif; font-size: 12px; font-weight: 200;" x="0" y="302.89599990844727" dx="0em" dy="0.3em" fill="rgb(50, 49, 63)" stroke="none" stroke-width="1px">0.02</text><text style="text-anchor: end; visibility: inherit; font-family: &quot;Helvetica Neue&quot;, sans-serif; font-size: 12px; font-weight: 200;" x="0" y="277.65466658274335" dx="0em" dy="0.3em" fill="rgb(50, 49, 63)" stroke="none" stroke-width="1px">0.04</text><text style="text-anchor: end; visibility: inherit; font-family: &quot;Helvetica Neue&quot;, sans-serif; font-size: 12px; font-weight: 200;" x="0" y="252.41333325703937" dx="0em" dy="0.3em" fill="rgb(50, 49, 63)" stroke="none" stroke-width="1px">0.06</text><text style="text-anchor: end; visibility: inherit; font-family: &quot;Helvetica Neue&quot;, sans-serif; font-size: 12px; font-weight: 200;" x="0" y="227.17199993133545" dx="0em" dy="0.3em" fill="rgb(50, 49, 63)" stroke="none" stroke-width="1px">0.08</text><text style="text-anchor: end; visibility: inherit; font-family: &quot;Helvetica Neue&quot;, sans-serif; font-size: 12px; font-weight: 200;" x="0" y="201.93066660563147" dx="0em" dy="0.3em" fill="rgb(50, 49, 63)" stroke="none" stroke-width="1px">0.1</text><text style="text-anchor: end; visibility: inherit; font-family: &quot;Helvetica Neue&quot;, sans-serif; font-size: 12px; font-weight: 200;" x="0" y="176.68933327992758" dx="0em" dy="0.3em" fill="rgb(50, 49, 63)" stroke="none" stroke-width="1px">0.12</text><text style="text-anchor: end; visibility: inherit; font-family: &quot;Helvetica Neue&quot;, sans-serif; font-size: 12px; font-weight: 200;" x="0" y="151.4479999542236" dx="0em" dy="0.3em" fill="rgb(50, 49, 63)" stroke="none" stroke-width="1px">0.14</text><text style="text-anchor: end; visibility: inherit; font-family: &quot;Helvetica Neue&quot;, sans-serif; font-size: 12px; font-weight: 200;" x="0" y="126.20666662851966" dx="0em" dy="0.3em" fill="rgb(50, 49, 63)" stroke="none" stroke-width="1px">0.16</text><text style="text-anchor: end; visibility: inherit; font-family: &quot;Helvetica Neue&quot;, sans-serif; font-size: 12px; font-weight: 200;" x="0" y="100.96533330281574" dx="0em" dy="0.3em" fill="rgb(50, 49, 63)" stroke="none" stroke-width="1px">0.18</text><text style="text-anchor: end; visibility: inherit; font-family: &quot;Helvetica Neue&quot;, sans-serif; font-size: 12px; font-weight: 200;" x="0" y="75.72399997711182" dx="0em" dy="0.3em" fill="rgb(50, 49, 63)" stroke="none" stroke-width="1px">0.2</text><text style="text-anchor: end; visibility: inherit; font-family: &quot;Helvetica Neue&quot;, sans-serif; font-size: 12px; font-weight: 200;" x="0" y="50.48266665140784" dx="0em" dy="0.3em" fill="rgb(50, 49, 63)" stroke="none" stroke-width="1px">0.22</text><text style="text-anchor: end; visibility: inherit; font-family: &quot;Helvetica Neue&quot;, sans-serif; font-size: 12px; font-weight: 200;" x="0" y="25.241333325703977" dx="0em" dy="0.3em" fill="rgb(50, 49, 63)" stroke="none" stroke-width="1px">0.24</text><text style="text-anchor: end; visibility: hidden; font-family: &quot;Helvetica Neue&quot;, sans-serif; font-size: 12px; font-weight: 200;" x="0" y="0" dx="0em" dy="0.3em" fill="rgb(50, 49, 63)" stroke="none" stroke-width="1px">0.26</text></g><line x1="59.98000144958496" y1="0" x2="59.98000144958496" y2="378.6199998855591" fill="rgb(0, 0, 0)" stroke="rgb(204, 204, 204)" stroke-width="1px"></line></g></g><g transform="translate(59, 0)" clip-path="url(#clip_0)"><clipPath id="clip_0"><rect width="827" height="378"></rect></clipPath><g><g><g><line x1="0" y1="0" x2="0" y2="378.6199998855591" fill="rgb(0, 0, 0)" stroke="rgb(60, 60, 60)" stroke-width="1px" opacity="0.25"></line><line x1="63.65538450387808" y1="0" x2="63.65538450387808" y2="378.6199998855591" fill="rgb(0, 0, 0)" stroke="rgb(60, 60, 60)" stroke-width="1px" opacity="0.25"></line><line x1="127.31076900775616" y1="0" x2="127.31076900775616" y2="378.6199998855591" fill="rgb(0, 0, 0)" stroke="rgb(60, 60, 60)" stroke-width="1px" opacity="0.25"></line><line x1="190.96615351163425" y1="0" x2="190.96615351163425" y2="378.6199998855591" fill="rgb(0, 0, 0)" stroke="rgb(60, 60, 60)" stroke-width="1px" opacity="0.25"></line><line x1="254.62153801551233" y1="0" x2="254.62153801551233" y2="378.6199998855591" fill="rgb(0, 0, 0)" stroke="rgb(60, 60, 60)" stroke-width="1px" opacity="0.25"></line><line x1="318.27692251939044" y1="0" x2="318.27692251939044" y2="378.6199998855591" fill="rgb(0, 0, 0)" stroke="rgb(60, 60, 60)" stroke-width="1px" opacity="0.25"></line><line x1="381.9323070232685" y1="0" x2="381.9323070232685" y2="378.6199998855591" fill="rgb(0, 0, 0)" stroke="rgb(60, 60, 60)" stroke-width="1px" opacity="0.25"></line><line x1="445.58769152714655" y1="0" x2="445.58769152714655" y2="378.6199998855591" fill="rgb(0, 0, 0)" stroke="rgb(60, 60, 60)" stroke-width="1px" opacity="0.25"></line><line x1="509.24307603102466" y1="0" x2="509.24307603102466" y2="378.6199998855591" fill="rgb(0, 0, 0)" stroke="rgb(60, 60, 60)" stroke-width="1px" opacity="0.25"></line><line x1="572.8984605349027" y1="0" x2="572.8984605349027" y2="378.6199998855591" fill="rgb(0, 0, 0)" stroke="rgb(60, 60, 60)" stroke-width="1px" opacity="0.25"></line><line x1="636.5538450387809" y1="0" x2="636.5538450387809" y2="378.6199998855591" fill="rgb(0, 0, 0)" stroke="rgb(60, 60, 60)" stroke-width="1px" opacity="0.25"></line><line x1="700.2092295426588" y1="0" x2="700.2092295426588" y2="378.6199998855591" fill="rgb(0, 0, 0)" stroke="rgb(60, 60, 60)" stroke-width="1px" opacity="0.25"></line><line x1="763.864614046537" y1="0" x2="763.864614046537" y2="378.6199998855591" fill="rgb(0, 0, 0)" stroke="rgb(60, 60, 60)" stroke-width="1px" opacity="0.25"></line><line x1="827.519998550415" y1="0" x2="827.519998550415" y2="378.6199998855591" fill="rgb(0, 0, 0)" stroke="rgb(60, 60, 60)" stroke-width="1px" opacity="0.25"></line></g><g><line x1="0" y1="378.6199998855591" x2="827.519998550415" y2="378.6199998855591" fill="rgb(0, 0, 0)" stroke="rgb(60, 60, 60)" stroke-width="1px" opacity="0.25"></line><line x1="0" y1="353.37866655985516" x2="827.519998550415" y2="353.37866655985516" fill="rgb(0, 0, 0)" stroke="rgb(60, 60, 60)" stroke-width="1px" opacity="0.25"></line><line x1="0" y1="328.1373332341512" x2="827.519998550415" y2="328.1373332341512" fill="rgb(0, 0, 0)" stroke="rgb(60, 60, 60)" stroke-width="1px" opacity="0.25"></line><line x1="0" y1="302.89599990844727" x2="827.519998550415" y2="302.89599990844727" fill="rgb(0, 0, 0)" stroke="rgb(60, 60, 60)" stroke-width="1px" opacity="0.25"></line><line x1="0" y1="277.65466658274335" x2="827.519998550415" y2="277.65466658274335" fill="rgb(0, 0, 0)" stroke="rgb(60, 60, 60)" stroke-width="1px" opacity="0.25"></line><line x1="0" y1="252.41333325703937" x2="827.519998550415" y2="252.41333325703937" fill="rgb(0, 0, 0)" stroke="rgb(60, 60, 60)" stroke-width="1px" opacity="0.25"></line><line x1="0" y1="227.17199993133545" x2="827.519998550415" y2="227.17199993133545" fill="rgb(0, 0, 0)" stroke="rgb(60, 60, 60)" stroke-width="1px" opacity="0.25"></line><line x1="0" y1="201.93066660563147" x2="827.519998550415" y2="201.93066660563147" fill="rgb(0, 0, 0)" stroke="rgb(60, 60, 60)" stroke-width="1px" opacity="0.25"></line><line x1="0" y1="176.68933327992758" x2="827.519998550415" y2="176.68933327992758" fill="rgb(0, 0, 0)" stroke="rgb(60, 60, 60)" stroke-width="1px" opacity="0.25"></line><line x1="0" y1="151.4479999542236" x2="827.519998550415" y2="151.4479999542236" fill="rgb(0, 0, 0)" stroke="rgb(60, 60, 60)" stroke-width="1px" opacity="0.25"></line><line x1="0" y1="126.20666662851966" x2="827.519998550415" y2="126.20666662851966" fill="rgb(0, 0, 0)" stroke="rgb(60, 60, 60)" stroke-width="1px" opacity="0.25"></line><line x1="0" y1="100.96533330281574" x2="827.519998550415" y2="100.96533330281574" fill="rgb(0, 0, 0)" stroke="rgb(60, 60, 60)" stroke-width="1px" opacity="0.25"></line><line x1="0" y1="75.72399997711182" x2="827.519998550415" y2="75.72399997711182" fill="rgb(0, 0, 0)" stroke="rgb(60, 60, 60)" stroke-width="1px" opacity="0.25"></line><line x1="0" y1="50.48266665140784" x2="827.519998550415" y2="50.48266665140784" fill="rgb(0, 0, 0)" stroke="rgb(60, 60, 60)" stroke-width="1px" opacity="0.25"></line><line x1="0" y1="25.241333325703977" x2="827.519998550415" y2="25.241333325703977" fill="rgb(0, 0, 0)" stroke="rgb(60, 60, 60)" stroke-width="1px" opacity="0.25"></line><line x1="0" y1="0" x2="827.519998550415" y2="0" fill="rgb(0, 0, 0)" stroke="rgb(60, 60, 60)" stroke-width="1px" opacity="0.25"></line></g></g></g><g><g><line x1="0" y1="328.1373332341512" x2="827.519998550415" y2="328.1373332341512" fill="rgb(0, 0, 0)" stroke="rgb(153, 153, 153)" stroke-width="1.5px"></line></g></g><g><g><line x1="63.65538450387808" y1="0" x2="63.65538450387808" y2="378.6199998855591" fill="rgb(0, 0, 0)" stroke="rgb(153, 153, 153)" stroke-width="1.5px"></line></g></g><g><g><g><g><g><path style="fill: none;" stroke="rgb(255, 112, 67)" stroke-width="2px" d="M87.76804415394709,-52.47930128878795L91.88018199289762,65.46994525078969L95.97958875494737,25.866588814407237L100.07899551699711,72.93906536016107L104.21659550974918,140.26804369716334L108.2905401179974,144.1927672857841L112.38994688004713,212.07349615860034L116.48935364209687,113.9499895276673L120.61422255794818,116.83674587627593L124.76455362760103,160.02844513457896L128.85122931275,185.26565570587243L132.98882930550207,133.7901715725387L137.12642929825415,121.01271753038617L141.276760367907,3.877605403503253L145.40162928375833,111.89130011252598L149.4755738920065,132.01556292536227L153.587711730957,115.7466135691804L157.71258064680833,60.395942210925796L161.83744956265963,140.13717854532976L165.96231847851095,178.13311337961895L170.0617252405607,235.15584562096208L174.17386307951122,244.97270956008558L178.32419414916407,254.0731219423148L182.44906306501534,96.13939892045136L186.56120090396587,188.96966246523633L190.6606076660156,139.26121701574294L194.76001442806538,98.25623477055007L198.89761442081743,109.44001460787348L203.00975225976796,140.95064851454282L207.1218900987185,179.55425949116827L211.23402793766903,148.2119385457727L215.34616577661953,135.93724446390274L219.47103469247085,158.36826266781273L223.58317253142138,198.90667946796432L227.69531037037189,137.9467763798118L231.8201792862232,134.12048958389138L235.91958604827295,183.90600773804982L240.05718604102503,212.08485159444095L244.258441418281,211.4016147808874L248.44696571863616,228.69596648324196L252.64822109589207,259.5621269095934L256.8622075500488,237.99889523075353L261.07619400420555,242.90954752150054L265.31564261216386,221.52949347307302L269.51689798941976,219.93132644457424L273.7181533666757,261.32330809426463L277.9321398208325,250.6623015038764L282.1333951980884,228.06511052116176L286.3473816522452,265.8225037532717L290.5613681064019,257.9457844054508L294.46980871494003,219.31827556935755L298.67106409219593,261.7601930155412L302.8723194694519,227.8691395510454L307.07357484670786,250.6099314828739L311.2748302239638,253.55155812682574L315.4506234474182,130.39516406264153L319.62641667087263,193.15837538228345L323.80220989432706,222.63354550349152L328.01619634848373,194.67255369163775L332.20472064883893,186.97872069413032L336.38051387229336,248.6863428413971L340.59450032645003,255.30113981324212L344.77029354990447,244.7732812172178L348.97154892716037,153.47374742977732L353.1600732275156,209.0207710275431L357.33586645097,233.5761082319078L361.5116596744244,253.73279566873097L365.7001839747796,220.88594187439105L369.90143935203554,251.36608659131645L374.0772325754899,266.8718961201797L378.2784879527459,252.20616232841414L382.467012253101,239.16946428428122L386.6555365534563,258.61895999210356L390.8440608538114,190.6312830243503L395.0325851541666,248.16648292968864L399.22110945452175,252.6375664550705L403.3969026779762,195.10302455741515L407.59815805523215,224.80708398631944L411.7230269710834,238.54498824858564L415.74604727172846,216.98756265611084L419.9473026489844,241.4062849905129L424.03397833413345,265.0219651285976L428.1333850961832,213.4543122817256L432.23279185823293,215.0721967949845L436.2940053895804,223.54819220083266L439.9605555370037,242.97030552124667L444.13634876045813,250.34591235346136L448.3121419839125,250.22466828960296L452.5133973611685,241.8045578093299L456.68919058462285,241.39576660203969L460.8522527311765,257.2730537491647L465.0407770315317,270.0999782003082L469.2165702549861,267.0775324460771L473.44328778604364,273.61458701420446L477.6445431632996,240.00155470953143L481.7821431560517,264.0486827336131L485.98339853330754,255.2299677096666L490.159191756762,261.73328012080236L494.2967917495141,281.78455810183374L498.4216606653654,270.1773629925536L502.4956052736136,249.0257163776831L506.58228095876257,248.65088836700588L510.69441879771307,249.5845183322606L514.8192877135643,235.5670550930575L518.931425552515,278.2224270908297L523.0181012376639,294.0094529584706L527.1047769228128,288.05800909859886L531.2296458386642,283.4532063914248L535.3545147545154,167.1968597572172L539.4539215165652,211.67169735686295L543.5660593555157,251.94901412363714L547.690928271367,262.28423107329183L551.8539904179206,276.8496117916967L555.978859333772,292.84711167678813L560.0909971727225,251.73171327335297L564.1649417809706,281.8377462847876L568.289810696822,295.4866534104781L572.427410689574,295.2228820524729L576.5522796054253,285.46977424009674L580.6516863674751,290.1628070883838L584.7256309757232,263.10143885222163L588.8504998915746,207.73409028344628L592.9626377305251,247.14485702290042L596.9474648004679,266.59470601300023L600.8940986397083,288.8515192619472L604.9680432479564,278.26863274308465L609.080181086907,256.6894478022249L613.2050500027583,279.391842540379L617.3171878417088,275.22177828272453L621.4165946037587,270.3175591473602L625.5032702889076,276.61689047680744L629.6154081278581,282.4292931263295L633.7402770437094,276.91370558998494L637.8524148826599,285.5349436372708L641.9518216447096,289.8610957750174L646.0384973298586,242.85308097244965L650.1124419381068,248.84290121367368L654.2118487001566,277.43295666756035L658.3749108467102,285.86512032258406L662.5507040701647,291.35349477009174L666.726497293619,293.51358706930915L670.9150215939742,300.8925936799749L675.0908148174285,281.24549546369394L679.2920701946846,242.69125441949262L683.4678634181389,267.58425316390606L687.6054634108909,203.739302241919L691.8067187881469,251.08869271176025L695.9825120116014,281.30312343360345L700.1710363119565,252.78363686933193L704.346829535411,210.51252300001593L708.4971606050639,243.91731505893546L712.6729538285182,239.95886103887534L716.8360159750719,266.3651465642129L721.0245402754271,281.89278623071294L725.225795652683,293.56161952663683L729.4015888761373,291.7681970557254L733.6028442533933,295.9750305714223L737.8040996306493,291.6569901409114L742.0053550079052,275.65945105736847L746.1938793082604,287.97520138493024L750.356941454814,239.17983951019556L754.5454657551692,273.52689797009407L758.7339900555244,267.4314614961276L762.9479765096811,279.1773826771938L767.1492318869371,292.52476380103195L771.3250251103915,291.8935605604189L775.5262804876475,300.8263921351666L779.7275358649034,275.7142085792171L783.9160601652585,278.78325648285374L788.1300466194153,293.40409836243214L792.2803776890681,301.7492686299739L796.4689019894233,310.39691460359734" fill="none"></path></g></g></g></g><g opacity="0.2"><g><g><g><path style="fill: none;" stroke="rgb(255, 112, 67)" stroke-width="2px" d="M71.28129956744267,-91.94175631621033L75.39343740639319,35.71574923989476L79.50557524534372,-79.01467250796037L83.6940995456989,-54.594858252553934L87.76804415394709,13.977199724900004L91.88018199289762,187.604320034642L95.97958875494737,-15.32611098636869L100.07899551699711,122.01246168485892L104.21659550974918,210.5407248027923L108.2905401179974,148.29151910714347L112.38994688004713,282.9856779021402L116.48935364209687,11.428537915510674L120.61422255794818,119.85312704580343L124.76455362760103,205.16142013909118L128.85122931275,211.63771268670408L132.98882930550207,79.99941109865819L137.12642929825415,107.66048406370766L141.276760367907,-118.52703605105143L145.40162928375833,224.76434030428783L149.4755738920065,153.04519595829052L153.587711730957,98.74573438345925L157.71258064680833,2.5550679733977972L161.83744956265963,223.465946791418L165.96231847851095,217.83847473617377L170.0617252405607,294.7440161951237L174.17386307951122,255.2312318619913L178.32419414916407,263.5829597653364L182.44906306501534,-68.89972619533177L186.56120090396587,285.9763385112862L190.6606076660156,87.31639983482444L194.76001442806538,55.40644761818834L198.89761442081743,121.12695018150964L203.00975225976796,173.87893874837465L207.1218900987185,219.8946382392786L211.23402793766903,115.45953363250686L215.34616577661953,123.11031465667693L219.47103469247085,181.80844733468933L223.58317253142138,241.2689105207034L227.69531037037189,74.24430096472327L231.8201792862232,130.1220590057459L235.91958604827295,235.93136515473807L240.05718604102503,241.53145529712333L244.258441418281,210.68763929678553L248.44696571863616,246.76838717833908L252.64822109589207,291.8169489502171L256.8622075500488,215.46553860930783L261.07619400420555,248.04112895416247L265.31564261216386,199.18755560242593L269.51689798941976,218.26125824096917L273.7181533666757,304.5775056872948L277.9321398208325,239.52165862516804L282.1333951980884,204.45127699934744L286.3473816522452,305.27859361341103L290.5613681064019,249.71469322603053L294.46980871494003,178.9529237999432L298.67106409219593,306.11156278036697L302.8723194694519,192.45333521493632L307.07357484670786,274.37382652819974L311.2748302239638,256.62552789177334L315.4506234474182,1.6979915334019893L319.62641667087263,258.7452894606823L323.80220989432706,253.43479689804633L328.01619634848373,165.4536031479623L332.20472064883893,178.93874388078407L336.38051387229336,313.1701770280092L340.59450032645003,262.21353501285927L344.77029354990447,233.7717766311883L348.97154892716037,58.06666815496732L353.1600732275156,267.0668427217319L357.33586645097,259.2361845334014L361.5116596744244,274.79632793911264L365.7001839747796,186.5613155167066L369.90143935203554,283.21752616258203L374.0772325754899,283.07530853173205L378.2784879527459,236.8806204723974L382.467012253101,225.54624812773332L386.6555365534563,278.9434841366786L390.8440608538114,119.58485576356924L395.0325851541666,308.29017853628966L399.22110945452175,257.30980302249407L403.3969026779762,134.98001656211474L407.59815805523215,255.84752236703542L411.7230269710834,252.90095773328505L415.74604727172846,194.46027333554918L419.9473026489844,266.9236001497756L424.03397833413345,289.70010940377415L428.1333850961832,159.56664233335832L432.23279185823293,216.76286956855364L436.2940053895804,232.4055207333243L439.9605555370037,263.26621535096353L444.13634876045813,258.0533460779229L448.3121419839125,250.09796948258526L452.5133973611685,233.00562845264378L456.68919058462285,240.9685839702906L460.8522527311765,273.86465647346097L465.0407770315317,283.50398309710647L469.2165702549861,263.91910753725887L473.44328778604364,280.44574219684876L477.6445431632996,204.87627964268498L481.7821431560517,289.1776856381237L485.98339853330754,246.01450068055283L490.159191756762,268.5291750944024L494.2967917495141,302.7379385687193L498.4216606653654,258.04796278633233L502.4956052736136,226.92246193964868L506.58228095876257,248.25919692844542L510.69441879771307,250.56015209963306L514.8192877135643,220.91894933593528L518.931425552515,322.79685467950367L523.0181012376639,310.506733568623L527.1047769228128,281.838811118242L531.2296458386642,278.6412346463003L535.3545147545154,45.710166239671025L539.4539215165652,258.14744789555203L543.5660593555157,294.03839831141136L547.690928271367,273.0844271086162L551.8539904179206,292.07028571215653L555.978859333772,309.5643354830902L560.0909971727225,208.76654234460997L564.1649417809706,313.2982429490884L568.289810696822,309.7496217974471L572.427410689574,294.94724368040613L576.5522796054253,275.2778763011924L580.6516863674751,295.06697842882284L584.7256309757232,234.82258574653883L588.8504998915746,149.8757771573845L592.9626377305251,288.32870529255496L596.9474648004679,286.9195993339429L600.8940986397083,312.1096615323192L604.9680432479564,267.2096245403469L609.080181086907,234.13942018508916L613.2050500027583,303.11561291092454L617.3171878417088,270.8641037721694L621.4165946037587,265.1927002962944L625.5032702889076,283.199627305739L629.6154081278581,288.50319446356013L633.7402770437094,271.1499730111054L637.8524148826599,294.5440492449663L641.9518216447096,294.3818805242782L646.0384973298586,193.7301861583144L650.1124419381068,255.102202120147L654.2118487001566,307.30927228501656L658.3749108467102,294.6766451236415L662.5507040701647,297.0887899493892L666.726497293619,295.77086143515794L670.9150215939742,308.6035801381552L675.0908148174285,260.71447871825524L679.2920701946846,202.4024667434458L683.4678634181389,293.5971823221786L687.6054634108909,137.02198133980164L691.8067187881469,300.5683216076476L695.9825120116014,312.8768945969201L700.1710363119565,222.9810650199603L704.346829535411,166.33964122655888L708.4971606050639,278.82498119821537L712.6729538285182,235.82231706290244L716.8360159750719,293.9594449352712L721.0245402754271,298.1190109128837L725.225795652683,305.75543100765344L729.4015888761373,289.89408891127607L733.6028442533933,300.3711285806678L737.8040996306493,287.1446820427701L742.0053550079052,258.94218628908544L746.1938793082604,300.8450345493148L750.356941454814,188.18918528117837L754.5454657551692,309.41922286377127L758.7339900555244,261.06179270635903L762.9479765096811,291.45175020996436L767.1492318869371,306.4726405991532L771.3250251103915,291.2339596279992L775.5262804876475,310.1611097930317L779.7275358649034,249.47223353404289L783.9160601652585,281.9903801612961L788.1300466194153,308.6827286292308L792.2803776890681,310.4698862306158L796.4689019894233,319.43361622429586" fill="none"></path></g></g></g></g></g></g><g transform="translate(59, 378)" clip-path="url(#clip_1)"><clipPath id="clip_1"><rect width="827" height="21"></rect></clipPath><g><g><line x1="0" y1="0" x2="0" y2="5" style="visibility: inherit;" fill="rgb(0, 0, 0)" stroke="rgb(204, 204, 204)" stroke-width="1px"></line><line x1="63.65538450387808" y1="0" x2="63.65538450387808" y2="5" style="visibility: inherit;" fill="rgb(0, 0, 0)" stroke="rgb(204, 204, 204)" stroke-width="1px"></line><line x1="127.31076900775616" y1="0" x2="127.31076900775616" y2="5" style="visibility: inherit;" fill="rgb(0, 0, 0)" stroke="rgb(204, 204, 204)" stroke-width="1px"></line><line x1="190.96615351163425" y1="0" x2="190.96615351163425" y2="5" style="visibility: inherit;" fill="rgb(0, 0, 0)" stroke="rgb(204, 204, 204)" stroke-width="1px"></line><line x1="254.62153801551233" y1="0" x2="254.62153801551233" y2="5" style="visibility: inherit;" fill="rgb(0, 0, 0)" stroke="rgb(204, 204, 204)" stroke-width="1px"></line><line x1="318.27692251939044" y1="0" x2="318.27692251939044" y2="5" style="visibility: inherit;" fill="rgb(0, 0, 0)" stroke="rgb(204, 204, 204)" stroke-width="1px"></line><line x1="381.9323070232685" y1="0" x2="381.9323070232685" y2="5" style="visibility: inherit;" fill="rgb(0, 0, 0)" stroke="rgb(204, 204, 204)" stroke-width="1px"></line><line x1="445.58769152714655" y1="0" x2="445.58769152714655" y2="5" style="visibility: inherit;" fill="rgb(0, 0, 0)" stroke="rgb(204, 204, 204)" stroke-width="1px"></line><line x1="509.24307603102466" y1="0" x2="509.24307603102466" y2="5" style="visibility: inherit;" fill="rgb(0, 0, 0)" stroke="rgb(204, 204, 204)" stroke-width="1px"></line><line x1="572.8984605349027" y1="0" x2="572.8984605349027" y2="5" style="visibility: inherit;" fill="rgb(0, 0, 0)" stroke="rgb(204, 204, 204)" stroke-width="1px"></line><line x1="636.5538450387809" y1="0" x2="636.5538450387809" y2="5" style="visibility: inherit;" fill="rgb(0, 0, 0)" stroke="rgb(204, 204, 204)" stroke-width="1px"></line><line x1="700.2092295426588" y1="0" x2="700.2092295426588" y2="5" style="visibility: inherit;" fill="rgb(0, 0, 0)" stroke="rgb(204, 204, 204)" stroke-width="1px"></line><line x1="763.864614046537" y1="0" x2="763.864614046537" y2="5" style="visibility: inherit;" fill="rgb(0, 0, 0)" stroke="rgb(204, 204, 204)" stroke-width="1px"></line><line x1="827.519998550415" y1="0" x2="827.519998550415" y2="5" style="visibility: inherit;" fill="rgb(0, 0, 0)" stroke="rgb(204, 204, 204)" stroke-width="1px"></line></g><g transform="translate(0, 8)"><text style="text-anchor: middle; visibility: hidden; font-family: &quot;Helvetica Neue&quot;, sans-serif; font-size: 12px; font-weight: 200;" x="0" y="0" dx="0em" dy="0.95em" fill="rgb(50, 49, 63)" stroke="none" stroke-width="1px">-5k</text><text style="text-anchor: middle; visibility: inherit; font-family: &quot;Helvetica Neue&quot;, sans-serif; font-size: 12px; font-weight: 200;" x="63.65538450387808" y="0" dx="0em" dy="0.95em" fill="rgb(50, 49, 63)" stroke="none" stroke-width="1px">0</text><text style="text-anchor: middle; visibility: inherit; font-family: &quot;Helvetica Neue&quot;, sans-serif; font-size: 12px; font-weight: 200;" x="127.31076900775616" y="0" dx="0em" dy="0.95em" fill="rgb(50, 49, 63)" stroke="none" stroke-width="1px">5k</text><text style="text-anchor: middle; visibility: inherit; font-family: &quot;Helvetica Neue&quot;, sans-serif; font-size: 12px; font-weight: 200;" x="190.96615351163425" y="0" dx="0em" dy="0.95em" fill="rgb(50, 49, 63)" stroke="none" stroke-width="1px">10k</text><text style="text-anchor: middle; visibility: inherit; font-family: &quot;Helvetica Neue&quot;, sans-serif; font-size: 12px; font-weight: 200;" x="254.62153801551233" y="0" dx="0em" dy="0.95em" fill="rgb(50, 49, 63)" stroke="none" stroke-width="1px">15k</text><text style="text-anchor: middle; visibility: inherit; font-family: &quot;Helvetica Neue&quot;, sans-serif; font-size: 12px; font-weight: 200;" x="318.27692251939044" y="0" dx="0em" dy="0.95em" fill="rgb(50, 49, 63)" stroke="none" stroke-width="1px">20k</text><text style="text-anchor: middle; visibility: inherit; font-family: &quot;Helvetica Neue&quot;, sans-serif; font-size: 12px; font-weight: 200;" x="381.9323070232685" y="0" dx="0em" dy="0.95em" fill="rgb(50, 49, 63)" stroke="none" stroke-width="1px">25k</text><text style="text-anchor: middle; visibility: inherit; font-family: &quot;Helvetica Neue&quot;, sans-serif; font-size: 12px; font-weight: 200;" x="445.58769152714655" y="0" dx="0em" dy="0.95em" fill="rgb(50, 49, 63)" stroke="none" stroke-width="1px">30k</text><text style="text-anchor: middle; visibility: inherit; font-family: &quot;Helvetica Neue&quot;, sans-serif; font-size: 12px; font-weight: 200;" x="509.24307603102466" y="0" dx="0em" dy="0.95em" fill="rgb(50, 49, 63)" stroke="none" stroke-width="1px">35k</text><text style="text-anchor: middle; visibility: inherit; font-family: &quot;Helvetica Neue&quot;, sans-serif; font-size: 12px; font-weight: 200;" x="572.8984605349027" y="0" dx="0em" dy="0.95em" fill="rgb(50, 49, 63)" stroke="none" stroke-width="1px">40k</text><text style="text-anchor: middle; visibility: inherit; font-family: &quot;Helvetica Neue&quot;, sans-serif; font-size: 12px; font-weight: 200;" x="636.5538450387809" y="0" dx="0em" dy="0.95em" fill="rgb(50, 49, 63)" stroke="none" stroke-width="1px">45k</text><text style="text-anchor: middle; visibility: inherit; font-family: &quot;Helvetica Neue&quot;, sans-serif; font-size: 12px; font-weight: 200;" x="700.2092295426588" y="0" dx="0em" dy="0.95em" fill="rgb(50, 49, 63)" stroke="none" stroke-width="1px">50k</text><text style="text-anchor: middle; visibility: inherit; font-family: &quot;Helvetica Neue&quot;, sans-serif; font-size: 12px; font-weight: 200;" x="763.864614046537" y="0" dx="0em" dy="0.95em" fill="rgb(50, 49, 63)" stroke="none" stroke-width="1px">55k</text><text style="text-anchor: middle; visibility: hidden; font-family: &quot;Helvetica Neue&quot;, sans-serif; font-size: 12px; font-weight: 200;" x="827.519998550415" y="0" dx="0em" dy="0.95em" fill="rgb(50, 49, 63)" stroke="none" stroke-width="1px">60k</text></g><line x1="0" y1="0" x2="827.519998550415" y2="0" fill="rgb(0, 0, 0)" stroke="rgb(204, 204, 204)" stroke-width="1px"></line></g></g></g></g></svg>